Sprint_08550001_forces_filt15Hz.mot
version=1
nRows=19
nColumns=19
inDegrees=yes
endheader
time	R_ground_force_vx	R_ground_force_vy	R_ground_force_vz	R_ground_force_px	R_ground_force_py	R_ground_force_pz	R_ground_torque_x	R_ground_torque_y	R_ground_torque_z	L_ground_force_vx	L_ground_force_vy	L_ground_force_vz	L_ground_force_px	L_ground_force_py	L_ground_force_pz	L_ground_torque_x	L_ground_torque_y	L_ground_torque_z	
0.597000	  0.000000	  0.000000	  0.000000	  0.162946	  0.000000	 -0.190286	  0.000000	  0.000000	  0.000000	  0.000000	  0.000000	  0.000000	  1.213822	  0.000000	 -0.384745	  0.000000	  0.000000	  0.000000
0.597500	  0.000000	  0.000000	  0.000000	  0.162472	  0.000000	 -0.190202	  0.000000	  0.000000	  0.000000	  0.000000	  0.000000	  0.000000	  1.214149	  0.000000	 -0.384617	  0.000000	  0.000000	  0.000000
0.598000	  0.000000	  0.000000	  0.000000	  0.161999	  0.000000	 -0.190117	  0.000000	  0.000000	  0.000000	  0.000000	  0.000000	  0.000000	  1.214477	  0.000000	 -0.384489	  0.000000	  0.000000	  0.000000
0.598500	  0.000000	  0.000000	  0.000000	  0.161525	  0.000000	 -0.190033	  0.000000	  0.000000	  0.000000	  0.000000	  0.000000	  0.000000	  1.214804	  0.000000	 -0.384362	  0.000000	  0.000000	  0.000000
0.599000	  0.000000	  0.000000	  0.000000	  0.161051	  0.000000	 -0.189949	  0.000000	  0.000000	  0.000000	  0.000000	  0.000000	  0.000000	  1.215131	  0.000000	 -0.384234	  0.000000	  0.000000	  0.000000
0.599500	  0.000000	  0.000000	  0.000000	  0.160577	  0.000000	 -0.189865	  0.000000	  0.000000	  0.000000	  0.000000	  0.000000	  0.000000	  1.215458	  0.000000	 -0.384107	  0.000000	  0.000000	  0.000000
0.600000	  0.000000	  0.000000	  0.000000	  0.160103	  0.000000	 -0.189781	  0.000000	  0.000000	  0.000000	  0.000000	  0.000000	  0.000000	  1.215786	  0.000000	 -0.383979	  0.000000	  0.000000	  0.000000
0.600500	  0.000000	  0.000000	  0.000000	  0.160116	  0.000000	 -0.189832	  0.000000	  0.000000	  0.000000	  0.000000	  0.000000	  0.000000	  1.215754	  0.000000	 -0.383745	  0.000000	  0.000000	  0.000000
0.601000	  0.000000	  0.000000	  0.000000	  0.160129	  0.000000	 -0.189882	  0.000000	  0.000000	  0.000000	  0.000000	  0.000000	  0.000000	  1.215723	  0.000000	 -0.383510	  0.000000	  0.000000	  0.000000
0.601500	  0.000000	  0.000000	  0.000000	  0.160142	  0.000000	 -0.189933	  0.000000	  0.000000	  0.000000	  0.000000	  0.000000	  0.000000	  1.215691	  0.000000	 -0.383276	  0.000000	  0.000000	  0.000000
0.602000	  0.000000	  0.000000	  0.000000	  0.160154	  0.000000	 -0.189984	  0.000000	  0.000000	  0.000000	  0.000000	  0.000000	  0.000000	  1.215660	  0.000000	 -0.383042	  0.000000	  0.000000	  0.000000
0.602500	  0.000000	  0.000000	  0.000000	  0.160167	  0.000000	 -0.190035	  0.000000	  0.000000	  0.000000	  0.000000	  0.000000	  0.000000	  1.215629	  0.000000	 -0.382807	  0.000000	  0.000000	  0.000000
0.603000	  0.000000	  0.000000	  0.000000	  0.160180	  0.000000	 -0.190085	  0.000000	  0.000000	  0.000000	  0.000000	  0.000000	  0.000000	  1.215597	  0.000000	 -0.382573	  0.000000	  0.000000	  0.000000
0.603500	  0.000000	  0.000000	  0.000000	  0.160193	  0.000000	 -0.190136	  0.000000	  0.000000	  0.000000	  0.000000	  0.000000	  0.000000	  1.215566	  0.000000	 -0.382338	  0.000000	  0.000000	  0.000000
0.604000	  0.000000	  0.000000	  0.000000	  0.160206	  0.000000	 -0.190187	  0.000000	  0.000000	  0.000000	  0.000000	  0.000000	  0.000000	  1.215534	  0.000000	 -0.382104	  0.000000	  0.000000	  0.000000
0.604500	  0.000000	  0.000000	  0.000000	  0.160219	  0.000000	 -0.190238	  0.000000	  0.000000	  0.000000	  0.000000	  0.000000	  0.000000	  1.215503	  0.000000	 -0.381870	  0.000000	  0.000000	  0.000000
0.605000	  0.000000	  0.000000	  0.000000	  0.160232	  0.000000	 -0.190288	  0.000000	  0.000000	  0.000000	  0.000000	  0.000000	  0.000000	  1.215472	  0.000000	 -0.381635	  0.000000	  0.000000	  0.000000
0.605500	  0.000000	  0.000000	  0.000000	  0.160941	  0.000000	 -0.190302	  0.000000	  0.000000	  0.000000	  0.000000	  0.000000	  0.000000	  1.215146	  0.000000	 -0.381309	  0.000000	  0.000000	  0.000000
0.606000	  0.000000	  0.000000	  0.000000	  0.161650	  0.000000	 -0.190316	  0.000000	  0.000000	  0.000000	  0.000000	  0.000000	  0.000000	  1.214820	  0.000000	 -0.380982	  0.000000	  0.000000	  0.000000
